<?xml version="1.0" encoding="UTF-8"?> <svg xmlns="http://www.w3.org/2000/svg" id="Layer_1" data-name="Layer 1" viewBox="0 0 1161 235"><defs><style> .cls-1 { letter-spacing: 0em; } .cls-1, .cls-2 { fill: #183556; } .cls-3 { fill: #ed743b; } .cls-4 { font-family: TimesNewRomanPSMT, 'Times New Roman'; font-size: 140.31px; } </style></defs><g><path class="cls-3" d="M1119.48,75.21c-.85,6.8-1.78,13.59-2.6,20.6l-22.88-3.63,2.67-20.79,22.81,3.73v.1Z"></path><path class="cls-2" d="M1137.41,96.5l-14.97-2.35c.59-4.6,1.16-9.08,1.78-13.7l15.35,2.46c-.59,4.61-1.18,9.09-1.78,13.57h-.37"></path><path class="cls-2" d="M1160.98,76.89c-.59,4.61-1.16,9.08-1.78,13.7l-15.29-2.44c.57-4.55,1.14-9.04,1.78-13.69l15.31,2.43"></path><path class="cls-3" d="M1137.41,96.5h.37c3.2,.51,6.41,.99,9.6,1.55,.37,0,.96,.55,.93,.78-.3,2.92-.71,5.83-1.1,8.9-1.12-.13-2.14-.24-3.15-.39-2.08-.33-4.13-.75-6.23-.99-1.16-.15-1.39-.62-1.25-1.63,.34-2.22,.61-4.43,.85-6.65v-1.63"></path><path class="cls-3" d="M1130.32,35.05c-.61,5-1.19,9.78-1.78,14.67l4.63,.73,2.42,.42,3.56,.59,5.91,1.04c0-1.35,.12-2.48,.16-3.58,0-.14,0-.27,0-.41,.18-.95,.34-1.87,.52-2.82,.36-2.64,.69-5.26,1.07-8l-16.5-2.61"></path><path class="cls-3" d="M1070.2,36.63c-3.71-1.68-7.76-2.63-11.89-2.79-8.49-.34-16.18,2.18-23.5,5.75-8.76,4.45-16.45,10.47-22.61,17.7-1.89,2.13-3.56,4.37-5.43,6.52l.21,.23,15.45-3.03,2.87-.57,1.57-.39,6.32-1.12c1.78-.12,3.42-.91,4.54-2.18,1.52-1.53,3.14-2.98,4.84-4.33,6.62-5.7,14.33-10.25,22.74-13.41,1.78-.65,3.74-1.19,5.61-1.79l.11-.34c-.28-.07-.55-.16-.82-.26"></path><path class="cls-2" d="M1113.09,40.37c-.71-1.09-1.28-2-1.89-2.9-5.79-8.52-13.6-14.67-24.3-17.5-8.12-2.01-16.69-1.89-24.73,.36-13.69,3.5-25.14,10.49-35.61,19.16l-.3,.26h0l-.77,.67c-.08,.02-.15,.07-.2,.13l-1.6,1.42h0l-.75,.65h0l-.46,.39-.23,.21-1.07,1.01h0c-2.83,2.74-5.68,5.46-8.51,8.15,.45,.18,.73,.18,.87,0,2.92-2.57,5.83-5.16,8.72-7.76,.07-.01,.13-.06,.16-.11l.78-.6h0l.82-.62h0l1.78-1.35c.08,0,.16-.05,.2-.11l1.19-.83c.06,0,.11-.03,.12-.08,0,0,0,0,0,0l.39-.26s.11,0,.14-.1l5.45-3.34h.11l2.4-1.24,.82-.39,.96-.52c.62-.23,1.25-.46,1.78-.72,4.86-2.15,10.09-3.49,15.45-3.98,7.57-.75,15.19,1.09,21.36,5.17,7.12,4.63,11.45,11.13,14.51,18.45,1.51,3.63,1.48,3.63-1.57,6.31-1.78,1.5-3.37,3.03-5.34,4.76l30.53,4.32c1.67-11.41,3.31-22.72,5-34.37l-6.25,5.38"></path><path class="cls-2" d="M1121.99,55.89c-.18,1.35-.32,2.51-.48,3.68l-2.08,15.55v.1c3.79,.55,7.58,1.09,11.36,1.63l10.2,1.63c.82-6.52,1.64-12.82,2.44-19.2l-21.36-3.41"></path><path class="cls-2" d="M1130.45,120.56c-1.26,8.15-6.61,13.33-14.69,16.3-2.12,.78-4.34,1.35-6.53,2-2.38,.66-4.35,2.2-5.43,4.25-2.31,4.29-4.34,8.72-6.89,12.89-9.47,15.5-20.51,29.9-35.2,41.72-8.45,7.14-18.41,12.64-29.25,16.15-11.18,3.39-22.31,3.81-33.22-1.01-4.45-2.02-8.45-4.79-11.8-8.15-.03-.07-.03-.14,0-.21l9.85,3.94c3.62,.65,7.34,.76,11,.33,8.22-1.31,15.93-4.56,22.36-9.42,7.39-5.47,13.97-11.79,19.58-18.8,.3-.37,.69-.7,1.03-1.06,.62-.83,1.26-1.63,1.89-2.46l2.72-3.72,1.78-2.48,1.23-1.73,3.01-4.42c1.91-3.44,3.93-6.83,5.7-10.35,3.76-7.08,6.11-14.73,6.93-22.57,.27-3.65-.58-7.29-2.47-10.51-2.88-4.9-4.38-10.37-4.36-15.94,.12-7.3,4.1-14.08,10.68-18.2,3.14-2.12,6.81-3.47,10.68-3.93l1.78-.31c-.3,3.05-.61,5.92-.93,8.77-.2,1.87-.34,3.76-.68,5.62-.19,2.03,.49,4.05,1.89,5.64,.53,.78,1.05,1.63,1.57,2.36l2.67,2.54,3.67,2.46,5.34,2.4,8.37,1.63c.05-.03,.12-.03,.18,0,.36-1.03,.71-2.04,1.09-3.05,.37-1.01,.45-1.87,.68-2.8,.45-1.92,.91-3.85,1.35-5.77,.27-.85,.55-1.63,.84-2.56-.16-.86,0-1.39,1.16-1.63,1.6-.28,3.15-.75,4.75-1.03,.36,0,.8,.34,1.19,.52,1.34,2.43,2.87,4.76,3.97,7.25,2.3,4.77,3.17,10.01,2.53,15.19"></path><path class="cls-3" d="M1018.55,200.44c-.93,.47-1.51,.81-2.14,1.11-5.64,2.62-11.54,4.37-17.96,3.57-2.17-.39-4.31-.93-6.39-1.63h0l-2.67-1.34h0c-1.18-.63-2.32-1.32-3.42-2.07-2.8-2.2-5.14-4.84-6.91-7.81l-.3-.52h0l-.11-.21c-.87-1.74-1.78-3.5-2.6-5.25l-.53-1.5-.59-1.84h0l-.18-.23-.27-.7-.09-.28-.57-2.27c-.25-.7-.48-1.4-.73-2.1v-.26c0-.26,.09-.54,.12-.81h0c.38-.16,.77-.29,1.18-.37l18.02-2.54c.75-.11,1.62-.36,1.51,.83l.36,1.01,.52,1.29,4.7,9.39c.21,.44,.46,.86,.68,1.29l6.04,6.65,.32,.26,2.8,2.17,5.63,3.05h0l3.67,1.22"></path></g><text class="cls-4" transform="translate(5.33 154.29)"><tspan class="cls-2" x="0" y="0">Malamal</tspan><tspan class="cls-3" x="498.69" y="0">.</tspan><tspan class="cls-1" x="533.77" y="0">com</tspan><tspan class="cls-3" x="775.34" y="0">.</tspan><tspan class="cls-2" x="810.42" y="0">bd</tspan></text></svg> 